<?xml version="1.0" standalone="no"?>
<!DOCTYPE svg PUBLIC "-//W3C//DTD SVG 1.1//EN" "http://www.w3.org/Graphics/SVG/1.1/DTD/svg11.dtd" >
<svg xmlns="http://www.w3.org/2000/svg">
<metadata>Generated by IcoMoon</metadata>
<defs>
<font id="systemauditor" horiz-adv-x="1024">
<font-face units-per-em="1024" ascent="960" descent="-64" />
<missing-glyph horiz-adv-x="1024" />
<glyph unicode="&#x20;" d="" horiz-adv-x="512" />
<glyph unicode="&#xe600;" d="M676.571 3.048h-67.048v48.762h-182.857v-48.762h-67.048c-18.286 0-30.476-6.095-18.286-12.19l158.476-48.762c6.095 0 12.19 0 18.286 0s12.19 0 18.286 0l158.476 48.762c12.19 6.095 6.095 12.19-18.286 12.19zM1036.191 94.476l-158.476 48.762c-6.095 0-12.19 0-18.286 0-12.19 0-24.381 0-24.381-6.095v-24.381h-158.476v-60.952h158.476v-24.381c0-6.095 12.19-6.095 24.381-6.095 6.095 0 12.19 0 18.286 0l158.476 48.762c6.095 18.286 6.095 24.381 0 24.381zM359.619 118.857h-158.476v24.381c0 6.095-12.19 6.095-24.381 6.095-6.095 0-12.19 0-18.286 0l-158.476-48.762c-6.095 0-6.095-6.095 0-12.19l158.476-48.762c6.095 0 12.19 0 18.286 0 12.19 0 24.381 0 24.381 6.095v24.381h158.476v48.762zM524.191 801.524c42.667 0 79.238 36.571 79.238 79.238s-36.571 79.238-79.238 79.238c-48.762 0-79.238-36.571-79.238-79.238s30.476-79.238 79.238-79.238zM688.762 679.619v6.095c0 54.857-42.667 103.619-97.524 103.619v0 0h-48.762c0-18.286-6.095-24.381-6.095-24.381s18.286-85.333 12.19-109.714c0-12.19-12.19-36.571-18.286-42.667-12.19 0-18.286 30.476-24.381 42.667-12.19 18.286 6.095 103.619 6.095 103.619-12.19 6.095-12.19 24.381-12.19 30.476h-42.667c-54.857 0-97.524-48.762-97.524-103.619v-6.095c0 0 0-6.095 0-6.095v-213.333c0-18.286 12.19-30.476 30.476-30.476s30.476 12.19 30.476 30.476v207.238h6.095v-524.191c0-24.381 18.286-42.667 42.667-42.667 0 0 0 0 0 0s0 0 0 0c24.381 0 42.667 18.286 42.667 42.667v274.286h18.286v-274.286c0-24.381 18.286-42.667 42.667-42.667 0 0 0 0 0 0s0 0 0 0c24.381 0 42.667 18.286 42.667 42.667v524.191h12.19v-207.238c0-18.286 12.19-30.476 30.476-30.476s30.476 12.19 30.476 30.476v219.429c0-6.095 0-6.095 0 0z" horiz-adv-x="1042" />
<glyph unicode="&#xe601;" d="M761.081 517.189h-96.865c0-6.919 0-55.351-27.676-76.108 0 0 41.514-242.162 27.676-318.27-6.919-34.595-34.595-117.622-69.189-117.622s-55.351 83.027-62.27 117.622c-13.838 76.108 34.595 318.27 34.595 318.27-6.919 0-20.757 20.757-27.676 76.108h-110.703c-103.784 0-193.73-89.946-186.811-193.73l27.676-200.649c20.757-103.784 83.027-186.811 186.811-186.811h283.676c103.784 0 166.054 89.946 186.811 193.73l27.676 200.649c6.919 96.865-89.946 186.811-193.73 186.811zM781.838 766.27c0-106.994-83.638-193.73-186.811-193.73s-186.811 86.736-186.811 193.73c0 106.994 83.638 193.73 186.811 193.73s186.811-86.736 186.811-193.73zM1072.432 600.216h-207.568c-27.676 0-48.432-6.919-69.189-20.757 27.676-6.919 62.27-13.838 89.946-27.676s55.351-34.595 83.027-62.27c41.514-48.432 55.351-103.784 48.432-159.135v0 0l-13.838-89.946h55.351c62.27 0 103.784 55.351 117.622 117.622l13.838 124.541c0 62.27-55.351 117.622-117.622 117.622zM1079.351 752.432c0-64.961-52.661-117.622-117.622-117.622s-117.622 52.661-117.622 117.622c0 64.961 52.661 117.622 117.622 117.622s117.622-52.661 117.622-117.622zM325.189 600.216h-207.568c-62.27 0-124.541-55.351-117.622-117.622l13.838-124.541c13.838-62.27 48.432-117.622 117.622-117.622h62.27l-13.838 89.946c-6.919 55.351 13.838 117.622 55.351 159.135 20.757 27.676 48.432 41.514 83.027 55.351 27.676 13.838 55.351 20.757 83.027 27.676-27.676 20.757-48.432 27.676-76.108 27.676zM339.027 752.432c0-64.961-52.661-117.622-117.622-117.622s-117.622 52.661-117.622 117.622c0 64.961 52.661 117.622 117.622 117.622s117.622-52.661 117.622-117.622z" horiz-adv-x="1183" />
<glyph unicode="&#xe602;" d="M1150.494 809.412l-84.329-90.353-162.635 150.588 84.329 90.353zM638.494 255.247l-180.706-30.118 18.071 186.729zM1048.094 700.988l-391.529-421.647-162.635 150.588 391.529 415.624zM644.518 170.918v0 0 0 0l-265.035-54.212 30.118 277.082 6.024-6.024 90.353 96.376c-30.118 6.024-54.212 12.047-78.306 18.071 78.306 30.118 138.541 102.4 138.541 192.753 0 114.447-96.376 204.8-210.824 204.8-114.447 6.024-204.8-90.353-204.8-204.8 0-90.353 54.212-162.635 138.541-192.753-216.847-36.141-289.129-246.965-289.129-512 0-30.118 24.094-60.235 48.188-60.235h614.4c24.094 0 48.188 30.118 48.188 60.235 0 84.329-6.024 156.612-24.094 228.894l-42.165-48.188z" horiz-adv-x="1150" />
<glyph unicode="&#xe603;" d="M524.642 378.469c-88.494 0-158.025 69.531-158.025 158.025s69.531 158.025 158.025 158.025h69.531c0 12.642 6.321 31.605 6.321 44.247 6.321 120.099-94.815 221.235-221.235 221.235-120.099 0-221.235-101.136-221.235-221.235 0-88.494 50.568-158.025 120.099-195.951-208.593-56.889-278.123-278.123-278.123-543.605 0-31.605 31.605-63.21 56.889-63.21h651.062c25.284 0 56.889 31.605 56.889 63.21 0 145.383-18.963 278.123-75.852 379.259h-164.346zM1049.284 618.667h-524.642c-44.247 0-82.173-37.926-82.173-82.173s37.926-88.494 88.494-88.494h524.642c44.247 0 88.494 37.926 88.494 88.494-6.321 44.247-44.247 82.173-94.815 82.173z" horiz-adv-x="1138" />
<glyph unicode="&#xe604;" d="M583.37 258.715v211.006c-43.442 31.030-99.297 55.855-167.564 62.061 80.679 18.618 148.945 80.679 167.564 161.358v37.236c0 12.412 0 24.824 6.206 31.030-12.412 111.709-105.503 198.594-217.212 198.594-124.121 0-217.212-99.297-217.212-217.212 0-105.503 74.473-192.388 173.77-211.006-248.242-24.824-328.921-254.448-328.921-533.721 0-31.030 31.030-62.061 49.648-62.061h639.224c24.824 0 55.855 31.030 55.855 62.061 0 43.442 0 80.679-6.206 117.915h-12.412c-80.679 0-142.739 62.061-142.739 142.739zM1092.267 817.261h-347.539c-37.236 0-68.267-31.030-68.267-68.267v-477.867c0-37.236 31.030-68.267 68.267-68.267h347.539c37.236 0 68.267 31.030 68.267 68.267v477.867c-6.206 37.236-31.030 68.267-68.267 68.267zM1042.618 326.982h-254.448v49.648h254.448v-49.648zM1042.618 482.133h-254.448v55.855h254.448v-55.855zM1042.618 643.491h-254.448v49.648h254.448v-49.648z" horiz-adv-x="1154" />
<glyph unicode="&#xe605;" d="M1017.794 339.394c-148.945-99.297-353.745-55.855-459.248 99.297s-74.473 366.158 68.267 465.455c148.945 99.297 353.745 55.855 459.248-99.297 111.709-155.152 80.679-359.952-68.267-465.455zM695.079 811.055c-93.091-68.267-111.709-204.8-43.442-304.097 68.267-105.503 204.8-130.327 297.891-68.267 93.091 68.267 111.709 204.8 43.442 304.097s-204.8 130.327-297.891 68.267zM533.721 420.073c-18.618 24.824-31.030 49.648-43.442 74.473l-459.248-316.509c-37.236-24.824-43.442-43.442-12.412-80.679l31.030-49.648c24.824-37.236 37.236-43.442 80.679-12.412l68.267-99.297 93.091 68.267-31.030 49.648 93.091 68.267 31.030-49.648 93.091 68.267-68.267 99.297 173.77 117.915c-12.412 12.412-37.236 37.236-49.648 62.061z" horiz-adv-x="1154" />
<glyph unicode="&#xe606;" d="M678.627 257.136v121.183h-121.183c-84.828-6.059-157.538 66.651-157.538 157.538 0 84.828 72.71 157.538 157.538 157.538h42.414c0 12.118 6.059 30.296 6.059 42.414 0 127.243-96.947 224.189-224.189 224.189-121.183 0-224.189-96.947-224.189-224.189 0-84.828 48.473-163.598 121.183-199.953-212.071-48.473-278.722-272.663-278.722-539.266 0-30.296 30.296-60.592 54.533-60.592h654.391c24.237 0 54.533 30.296 54.533 60.592 0 42.414 0 84.828-6.059 121.183-48.473 30.296-78.769 78.769-78.769 139.361zM1090.651 620.686h-169.657v163.598c0 48.473-36.355 84.828-84.828 84.828s-84.828-36.355-84.828-84.828v-163.598h-193.893c-48.473 0-84.828-42.414-84.828-84.828 0-48.473 36.355-84.828 84.828-84.828h193.893v-193.893c0-48.473 36.355-84.828 84.828-84.828s84.828 36.355 84.828 84.828v187.834h169.657c48.473 0 84.828 36.355 84.828 84.828 6.059 48.473-36.355 90.888-84.828 90.888z" horiz-adv-x="1182" />
<glyph unicode="&#xe607;" d="M950.272 910.848h-98.304c-16.384 0-24.576-8.192-24.576-24.576v-106.496l147.456-106.496v204.8c0 16.384-8.192 32.768-24.576 32.768zM950.272 452.096l-335.872 245.76c-8.192 8.192-16.384 8.192-24.576 8.192s-16.384 0-24.576-8.192l-344.064-245.76c-8.192-8.192-16.384-24.576-16.384-32.768v-360.448c0-65.536 57.344-122.88 122.88-122.88h139.264v237.568c-8.192 24.576 16.384 49.152 40.96 49.152h163.84c24.576 0 49.152-24.576 49.152-49.152v-237.568h139.264c65.536 0 122.88 57.344 122.88 122.88v360.448c-8.192 8.192-16.384 24.576-32.768 32.768zM1155.072 468.48c-16.384-24.576-57.344-32.768-81.92-16.384l-524.288 393.216c-24.576 16.384-32.768 57.344-16.384 81.92l8.192 16.384c16.384 24.576 57.344 32.768 81.92 8.192l524.288-385.024c24.576-16.384 32.768-57.344 8.192-81.92v-16.384zM630.784 935.424c-16.384 24.576-57.344 32.768-81.92 16.384l-524.288-393.216c-24.576-16.384-32.768-57.344-16.384-81.92l16.384-8.192c16.384-24.576 57.344-32.768 81.92-16.384l524.288 385.024c24.576 16.384 32.768 57.344 8.192 81.92l-8.192 16.384z" horiz-adv-x="1171" />
<glyph unicode="&#xe608;" d="M488.877 960v-290.684h284.077zM402.994 590.039v369.961h-270.865c-72.671 0-132.129-59.458-132.129-132.129v-759.742c0-72.671 59.458-132.129 132.129-132.129h515.303c72.671 0 132.129 59.458 132.129 132.129v521.91h-376.568zM621.006 74.735h-462.452v118.916h462.452v-118.916zM634.219 325.781h-462.452v118.916h462.452v-118.916z" horiz-adv-x="773" />
<glyph unicode="&#xe609;" d="M739.556 732.444c-18.963 18.963-56.889 18.963-66.37 0-18.963-18.963-18.963-47.407 0-66.37 85.333-66.37 151.704-170.667 151.704-284.444 0-199.111-161.185-350.815-360.296-360.296-208.593 9.481-369.778 161.185-369.778 360.296 0 113.778 56.889 218.074 151.704 284.444 18.963 9.481 18.963 37.926 9.481 56.889-18.963 28.444-56.889 28.444-75.852 9.481-113.778-75.852-180.148-208.593-180.148-350.815 0-246.519 208.593-445.63 464.593-445.63s455.111 199.111 455.111 445.63c0 142.222-66.37 274.963-180.148 350.815zM530.963 438.519c0-37.926-28.444-66.37-66.37-66.37v0c-37.926 0-66.37 28.444-66.37 66.37v455.111c0 37.926 28.444 66.37 66.37 66.37v0c37.926 0 66.37-28.444 66.37-66.37v-455.111z" horiz-adv-x="920" />
<glyph unicode="&#xe60a;" d="M992.423-27.912c-27.066-27.066-58.643-36.088-90.22-36.088s-67.665 13.533-90.22 36.088l-202.996 198.485c-58.643-31.577-121.797-45.11-189.463-45.11-230.062 0-419.524 184.952-419.524 415.013s184.952 419.524 415.013 419.524c230.062 0 419.524-184.952 419.524-415.013 0-67.665-18.044-130.819-45.11-189.463l202.996-198.485c49.621-54.132 49.621-135.33 0-184.952zM419.524 274.326c148.863 0 266.15 121.797 266.15 270.661s-121.797 266.15-270.661 266.15c-148.863 0-266.15-121.797-266.15-270.661s121.797-266.15 270.661-266.15z" horiz-adv-x="1029" />
<glyph unicode="&#xe60b;" d="M658.797 709.371c0 143.217-114.573 250.629-250.629 250.629-143.217 0-257.79-114.573-257.79-250.629 0 0 0-143.217 0-143.217 0-7.161 21.483-14.322 42.965-14.322s42.965 7.161 42.965 14.322c0 0 0 143.217 0 143.217 0 93.091 71.608 164.699 164.699 164.699s164.699-71.608 164.699-164.699c0 0 0-143.217 0-143.217 0-7.161 21.483-14.322 42.965-14.322s42.965 7.161 42.965 14.322c7.161-7.161 7.161 143.217 7.161 143.217zM751.888 530.35h-694.601c-35.804 0-57.287-28.643-57.287-57.287v-486.937c0-28.643 21.483-57.287 57.287-57.287h701.762c28.643 0 57.287 21.483 57.287 57.287v486.937c-7.161 28.643-35.804 57.287-64.448 57.287zM443.972 272.559v-143.217c0-21.483-21.483-42.965-42.965-42.965s-42.965 21.483-42.965 42.965v143.217c-7.161 14.322-21.483 28.643-21.483 50.126 0 35.804 28.643 64.448 64.448 64.448s64.448-28.643 64.448-64.448c7.161-21.483-7.161-35.804-21.483-50.126z" horiz-adv-x="809" />
<glyph unicode="&#xe60c;" d="M541.681 752.232c0-114.747-89.699-207.768-200.348-207.768s-200.348 93.021-200.348 207.768c0 114.747 89.699 207.768 200.348 207.768s200.348-93.021 200.348-207.768zM897.855 499.942c259.71 0 341.333-222.609 341.333-512 0-29.681-29.681-59.362-51.942-59.362h-452.638c7.42 29.681 7.42 51.942 7.42 89.043 0 44.522-7.42 89.043-7.42 133.565-14.841 89.043-37.101 170.667-74.203 244.87 59.362 66.783 133.565 103.884 237.449 103.884v0zM341.333 499.942c259.71 0 341.333-222.609 341.333-512 0-29.681-29.681-59.362-51.942-59.362h-593.623c-22.261 0-51.942 29.681-51.942 59.362 14.841 281.971 96.464 512 356.174 512zM1090.783 752.232c0-114.747-89.699-207.768-200.348-207.768s-200.348 93.021-200.348 207.768c0 114.747 89.699 207.768 200.348 207.768s200.348-93.021 200.348-207.768z" horiz-adv-x="1239" />
<glyph unicode="&#xe60d;" d="M816.608 661.873c-30.245 30.245-86.413 30.245-116.658 0l-259.24-254.92-116.658 116.658c-30.245 30.245-86.413 30.245-116.658 0s-30.245-86.413 0-116.658l172.827-172.827c30.245-30.245 86.413-30.245 116.658 0l319.73 315.409c34.565 30.245 34.565 82.093 0 112.338z" />
<glyph unicode="&#xe60e;" d="M898.7 458.802c0-212.376-172.164-384.54-384.54-384.54s-384.54 172.164-384.54 384.54c0 212.376 172.164 384.54 384.54 384.54s384.54-172.164 384.54-384.54z" />
<glyph unicode="&#xe60f;" d="M1752.412 252.701h-168.907v242.804h-464.495v-253.361h-179.464c-52.784 0-73.897-42.227-42.227-63.34l411.711-253.361c10.557-10.557 21.113-10.557 42.227-10.557 10.557 0 31.67 0 42.227 10.557l401.155 263.918c42.227 21.113 10.557 63.34-42.227 63.34zM2681.402 696.082l-411.711 253.361c-10.557 10.557-31.67 10.557-42.227 10.557-31.67 0-63.34-10.557-63.34-31.67v-105.567h-411.711v-285.031h411.711v-105.567c0-21.113 31.67-31.67 63.34-31.67 10.557 0 31.67 0 42.227 10.557l411.711 253.361c21.113 0 21.113 21.113 0 31.67zM939.546 822.763h-411.711v105.567c0 21.113-31.67 31.67-63.34 31.67-10.557 0-21.113 0-42.227-10.557l-401.155-253.361c-21.113-10.557-21.113-31.67 0-52.784l401.155-242.804c10.557-10.557 21.113-10.557 42.227-10.557 31.67 0 63.34 21.113 63.34 42.227v105.567h411.711v285.031z" horiz-adv-x="2692" />
<glyph unicode="&#xe610;" d="M976.213 884.907c0 13.653-13.653 20.48-20.48 20.48h-95.573c-13.653 0-20.48-13.653-20.48-20.48v-88.747l143.36-102.4-6.827 191.147zM587.093 468.48c0 75.093 47.787 136.533 116.053 163.84l-88.747 61.44c-6.827 6.827-13.653 13.653-27.307 13.653-6.827 0-20.48 0-27.307-6.827l-334.507-245.76c-13.653-6.827-20.48-20.48-20.48-40.96v-361.813c0-68.267 54.613-122.88 122.88-122.88h136.533v238.933c0 27.307 20.48 47.787 47.787 47.787h163.84c27.307 0 47.787-20.48 47.787-47.787v-232.107h136.533c68.267 0 122.88 54.613 122.88 122.88v245.76h-218.453c-102.4 0-177.493 75.093-177.493 163.84zM976.213 693.76l-143.36 102.4-204.8 150.187c-13.653 6.827-20.48 13.653-34.133 13.653 13.653 0 27.307-6.827 34.133-20.48l6.827-13.653c20.48-27.307 13.653-61.44-13.653-81.92l-34.133-34.133 232.107-170.667h225.28l-68.267 54.613zM641.707 925.867l-6.827 13.653c-13.653 6.827-27.307 20.48-40.96 20.48 0 0-6.827 0-6.827 0s-6.827 0-6.827 0c-13.653 0-20.48-6.827-27.307-13.653l-532.48-382.293c-20.48-20.48-27.307-61.44-6.827-81.92l6.827-13.653c20.48-27.307 54.613-34.133 81.92-13.653l484.693 354.987 40.96 34.133c27.307 20.48 34.133 54.613 13.653 81.92zM1440.427 570.88h-211.627v204.8c0 61.44-47.787 109.227-109.227 109.227s-109.227-47.787-109.227-109.227v-204.8h-245.76c-61.44 0-109.227-47.787-109.227-109.227s47.787-109.227 109.227-109.227h245.76v-238.933c0-61.44 47.787-109.227 109.227-109.227s109.227 47.787 109.227 109.227v238.933h211.627c61.44 0 109.227 47.787 109.227 109.227s-47.787 109.227-109.227 109.227z" horiz-adv-x="1550" />
<glyph unicode="&#xe611;" d="M722.824 531.66c-13.386 20.078-26.771 40.157-53.542 40.157h-140.549l46.85-227.556h220.863c20.078 0 40.157 20.078 40.157 46.85l-113.778 140.549zM301.176 531.66c13.386 20.078 26.771 40.157 53.542 40.157h140.549l-46.85-220.863h-214.17c-20.078 0-40.157 20.078-40.157 46.85l107.085 133.856zM829.908-17.15c0-26.771-20.078-46.85-40.157-46.85h-555.503c-20.078 0-40.157 20.078-40.157 46.85v274.405c0 26.771 20.078 46.85 40.157 46.85h562.196c20.078 0 40.157-20.078 40.157-46.85v-274.405zM762.98 63.163c0 13.386-13.386 26.771-26.771 26.771h-53.542c-13.386 0-26.771-13.386-26.771-26.771v-26.771c0-13.386 13.386-26.771 26.771-26.771h53.542c13.386 0 26.771 13.386 26.771 26.771v26.771zM963.765 960h-910.222c-26.771 0-53.542-26.771-53.542-53.542v-716.131c0-33.464 26.771-53.542 53.542-53.542h73.621v66.928h-60.235v629.124h896.837v-642.51h-66.928v-66.928h73.621c33.464 0 53.542 26.771 53.542 53.542v729.516c0 26.771-26.771 53.542-60.235 53.542zM113.778 872.993h-46.85v46.85h53.542v-46.85zM957.072 872.993h-254.327v46.85h254.327v-46.85z" />
<glyph unicode="&#xe612;" d="M1139.285-36.874c-20.344-20.344-40.689-27.126-67.815-27.126-20.344 0-47.47 6.781-67.815 27.126l-142.411 142.411c-40.689-20.344-88.159-33.907-135.629-33.907-162.755 0-298.384 135.629-298.384 298.384s135.629 298.384 298.384 298.384 298.384-135.629 298.384-298.384c0-47.47-13.563-94.94-33.907-135.629l142.411-142.411c47.47-33.907 47.47-94.94 6.781-128.848zM732.397 200.477c94.94 0 176.318 74.596 176.318 176.318 0 94.94-74.596 176.318-176.318 176.318-94.94 0-176.318-74.596-176.318-176.318 6.781-101.722 81.377-176.318 176.318-176.318zM61.033 593.801h345.854l67.815 366.199h-217.007c-40.689 0-61.033-40.689-81.377-67.815l-176.318-223.788c0-40.689 27.126-74.596 61.033-74.596zM1003.656 620.927c6.781 13.563 13.563 27.126 13.563 47.47l-169.536 223.788c-20.344 27.126-47.47 67.815-81.377 67.815h-223.788l47.47-250.914c47.47 20.344 94.94 27.126 149.192 27.126 101.722 6.781 203.444-40.689 264.477-115.285zM732.397 3.815c-203.444 0-366.199 162.755-366.199 366.199 0 54.252 13.563 101.722 33.907 149.192h-339.073c-33.907 0-61.033-27.126-61.033-67.815v-440.795c0-40.689 27.126-74.596 61.033-74.596h874.808l-81.377 81.377c-40.689-6.781-81.377-13.563-122.066-13.563zM257.695 98.755c0-20.344-13.563-40.689-33.907-40.689h-67.815c-20.344 0-33.907 20.344-33.907 40.689v40.689c0 20.344 13.563 40.689 33.907 40.689h67.815c20.344 0 33.907-20.344 33.907-40.689v-40.689z" horiz-adv-x="1166" />
<glyph unicode="&#xe613;" d="M305.951-57.756l780.488 661.854c18.732 12.488 18.732 37.463 6.244 49.951l-243.512 287.22c-12.488 18.732-37.463 18.732-49.951 6.244l-786.732-655.61c-18.732-12.488-18.732-37.463-6.244-49.951l243.512-287.22c18.732-18.732 43.707-24.976 56.195-12.488z" horiz-adv-x="1099" />
<glyph unicode="&#xe614;" d="M1012.185 613.425l-71.48-60.513-173.47 204.91 71.48 60.513 173.47-204.91z" horiz-adv-x="1099" />
<glyph unicode="&#xe615;" d="M370.085 72.813l-71.48-60.513-173.47 204.91 71.48 60.513 173.47-204.91z" horiz-adv-x="1099" />
<glyph unicode="&#xe616;" d="M865.283 488.588l-76.246-64.547-112.957 133.43 76.246 64.547 112.957-133.43z" horiz-adv-x="1099" />
<glyph unicode="&#xe617;" d="M710.838 361.772l-76.246-64.547-112.957 133.43 76.246 64.547 112.957-133.43z" horiz-adv-x="1099" />
<glyph unicode="&#xe618;" d="M541.898 220.15l-76.246-64.547-112.957 133.43 76.246 64.547 112.957-133.43z" horiz-adv-x="1099" />
</font>
</defs>
</svg>
